<?xml version="1.0" encoding="UTF-8"?>
<svg id="Layer_1" xmlns="http://www.w3.org/2000/svg" viewBox="0 0 221.48 58.81">
  <defs>
    <style>
      .cls-1 {
        fill: #fff;
      }

      .cls-2 {
        fill: none;
      }
    </style>
  </defs>
  <g>
    <g>
      <path class="cls-1" d="M79.89,24.52v-15.81h11.77v2.26h1.96v4.52h-1.96v2.26h1.96v4.52h-1.96v2.26h-11.77ZM83.82,15.48h5.89v-4.52h-5.89v4.52ZM83.82,22.26h5.89v-4.52h-5.89v4.52Z"/>
      <path class="cls-1" d="M95.57,24.52v-2.26h3.92v-11.29h-3.92v-2.26h11.77v2.26h-3.92v11.29h3.92v2.26h-11.77Z"/>
      <path class="cls-1" d="M113.23,24.52v-2.26h-1.96v-2.26h-1.96v-6.78h1.96v-2.26h1.96v-2.26h9.81v2.26h-7.85v2.26h-1.96v6.78h1.96v2.26h3.93v-4.52h-1.96v-2.26h5.89v9.04h-9.81Z"/>
      <path class="cls-1" d="M134.74,24.52v-2.26h-1.96v-2.26h3.92v2.26h5.89v-4.52h-7.85v-2.26h-1.96v-4.52h1.96v-2.26h9.81v2.26h1.96v2.26h-3.92v-2.26h-5.89v4.52h7.85v2.26h1.96v4.52h-1.96v2.26h-9.81Z"/>
      <path class="cls-1" d="M152.38,24.52v-13.55h-3.92v-2.26h11.77v2.26h-3.92v13.55h-3.93Z"/>
      <path class="cls-1" d="M164.15,24.52v-2.26h-1.96v-11.29h1.96v-2.26h9.81v2.26h1.96v11.29h-1.96v2.26h-9.81ZM166.11,22.26h5.89v-11.29h-5.89v11.29Z"/>
      <path class="cls-1" d="M177.89,24.52v-15.81h3.92v2.26h1.96v2.26h1.96v-2.26h1.96v-2.26h3.92v15.81h-3.92v-9.04h-1.96v4.52h-1.96v-4.52h-1.96v9.04h-3.92Z"/>
      <path class="cls-1" d="M193.59,24.52v-15.81h11.77v2.26h1.96v6.78h-1.96v2.26h-7.85v4.52h-3.92ZM197.51,17.74h5.89v-6.78h-5.89v6.78Z"/>
      <path class="cls-1" d="M213.19,24.52v-6.78h-1.96v-2.26h-1.96v-6.78h3.92v6.78h3.93v-6.78h3.92v6.78h-1.96v2.26h-1.96v6.78h-3.93Z"/>
    </g>
    <g>
      <path class="cls-1" d="M79.89,58.31v-30.46h22.42v4.35h3.74v13.05h-7.47v4.35h3.74v4.35h3.74v4.35h-11.21v-4.35h-3.74v-4.35h-3.74v8.7h-7.47ZM87.36,45.25h7.47v-4.35h3.74v-8.7h-11.21v13.05Z"/>
      <path class="cls-1" d="M113.52,58.31v-4.35h-3.74v-21.76h3.74v-4.35h18.68v4.35h3.74v21.76h-3.74v4.35h-18.68ZM117.26,53.95h11.21v-21.76h-11.21v21.76Z"/>
      <path class="cls-1" d="M139.68,58.31v-30.46h22.42v4.35h3.74v8.7h-3.74v4.35h3.74v8.7h-3.74v4.35h-22.42ZM147.15,40.9h11.21v-8.7h-11.21v8.7ZM147.15,53.95h11.21v-8.7h-11.21v8.7Z"/>
      <path class="cls-1" d="M173.3,58.31v-4.35h-3.74v-21.76h3.74v-4.35h18.68v4.35h3.74v21.76h-3.74v4.35h-18.68ZM177.04,53.95h11.21v-21.76h-11.21v21.76Z"/>
      <path class="cls-1" d="M206.09,58.31v-26.11h-7.47v-4.35h22.42v4.35h-7.47v26.11h-7.47Z"/>
    </g>
  </g>
  <g>
    <g>
      <path class="cls-2" d="M13.36,19.98v19.52c0,3.92,3.19,7.11,7.11,7.11h36.45c3.92,0,7.11-3.19,7.11-7.11v-19.52c0-2.29-1.09-4.32-2.78-5.62l-1.65,4.01c.51,1.1.8,2.31.8,3.59,0,4.86-4.09,8.81-9.12,8.81s-9.12-3.95-9.12-8.81c0-1.32.31-2.56.85-3.68l-2.23-5.4h-4.4l-2.27,5.49c.51,1.1.8,2.31.8,3.59,0,4.86-4.09,8.81-9.12,8.81s-9.12-3.95-9.12-8.81c0-1.32.31-2.56.85-3.68l-1.56-3.78c-1.59,1.31-2.6,3.28-2.6,5.5ZM32.35,33h12.42c0,.15.01.29.01.44,0,5.63-2.79,10.19-6.22,10.19s-6.22-4.56-6.22-10.19c0-.15,0-.3.01-.44Z"/>
      <polygon class="cls-2" points="39.73 10.34 37.43 10.34 36.85 11.72 40.3 11.72 39.73 10.34"/>
      <path class="cls-2" d="M51.28,29.52c4.35,0,7.88-3.39,7.88-7.57,0-.66-.1-1.29-.26-1.9l-1.35,3.27-.13.09c-1.17,2.28-3.52,3.69-6.13,3.69-2.87,0-5.45-1.77-6.44-4.4l-1.15-2.77c-.19.65-.29,1.32-.29,2.02,0,4.17,3.53,7.57,7.88,7.57Z"/>
      <path class="cls-2" d="M65.17,19.98v19.52c0,4.55-3.7,8.26-8.26,8.26H20.47c-4.55,0-8.26-3.7-8.26-8.26v-19.52c0-2.69,1.3-5.08,3.3-6.59l-.95-2.3c-3.43,1.45-5.84,4.85-5.84,8.8v26.59c0,5.27,4.28,9.55,9.55,9.55h40.61c5.27,0,9.55-4.28,9.55-9.55v-26.59c0-3.95-2.41-7.35-5.84-8.8l-.9,2.17c2.1,1.5,3.47,3.95,3.47,6.72Z"/>
      <polygon class="cls-2" points="38.58 7.55 38.42 7.93 38.73 7.93 38.58 7.55"/>
      <path class="cls-2" d="M25.8,29.52c4.35,0,7.88-3.39,7.88-7.57,0-.66-.1-1.29-.26-1.9l-1.35,3.27-.13.09c-1.17,2.28-3.52,3.69-6.13,3.69-2.86,0-5.45-1.77-6.44-4.4l-1.15-2.77c-.19.65-.29,1.32-.29,2.02,0,4.17,3.53,7.57,7.88,7.57Z"/>
      <path class="cls-1" d="M25.8,30.76c5.03,0,9.12-3.95,9.12-8.81,0-1.28-.29-2.49-.8-3.59l-.7,1.69c.16.61.26,1.24.26,1.9,0,4.17-3.53,7.57-7.88,7.57s-7.88-3.39-7.88-7.57c0-.7.11-1.38.29-2.02l-.69-1.66c-.54,1.12-.85,2.37-.85,3.68,0,4.86,4.09,8.81,9.12,8.81Z"/>
      <polygon class="cls-1" points="38.73 7.93 38.42 7.93 37.43 10.34 39.73 10.34 38.73 7.93"/>
      <path class="cls-1" d="M74.38,29.82h-3.53v-9.93c0-4.96-3.03-9.22-7.33-11.03l-.92,2.23c3.43,1.45,5.84,4.85,5.84,8.8v26.59c0,5.27-4.28,9.55-9.55,9.55H18.27c-5.27,0-9.55-4.28-9.55-9.55v-26.59c0-3.95,2.41-7.35,5.84-8.8l-.92-2.23c-4.3,1.81-7.33,6.08-7.33,11.03v9.93H1.55c-.42,0-.76.34-.76.76v13.68c0,.42.34.76.76.76h4.75v1.46c0,6.6,5.37,11.97,11.97,11.97h40.61c6.6,0,11.97-5.37,11.97-11.97v-1.46h3.53c.42,0,.76-.34.76-.76v-13.68c0-.42-.34-.76-.76-.76Z"/>
      <path class="cls-1" d="M12.21,19.98v19.52c0,4.55,3.7,8.26,8.26,8.26h36.45c4.55,0,8.26-3.7,8.26-8.26v-19.52c0-2.77-1.37-5.22-3.47-6.72l-.45,1.09c1.69,1.3,2.78,3.34,2.78,5.62v19.52c0,3.92-3.19,7.11-7.11,7.11H20.47c-3.92,0-7.11-3.19-7.11-7.11v-19.52c0-2.21,1.02-4.19,2.6-5.5l-.45-1.09c-2,1.51-3.3,3.9-3.3,6.59Z"/>
      <polygon class="cls-1" points="40.3 11.72 36.85 11.72 36.38 12.87 40.78 12.87 40.3 11.72"/>
      <path class="cls-1" d="M51.28,30.76c5.03,0,9.12-3.95,9.12-8.81,0-1.28-.29-2.49-.8-3.59l-.7,1.69c.16.61.26,1.24.26,1.9,0,4.17-3.53,7.57-7.88,7.57s-7.88-3.39-7.88-7.57c0-.7.11-1.38.29-2.02l-.69-1.66c-.54,1.12-.85,2.37-.85,3.68,0,4.86,4.09,8.81,9.12,8.81Z"/>
      <path class="cls-1" d="M38.56,43.64c3.44,0,6.22-4.56,6.22-10.19,0-.15,0-.3-.01-.44h-12.42c0,.15-.01.29-.01.44,0,5.63,2.79,10.19,6.22,10.19Z"/>
    </g>
    <path class="cls-1" d="M11.45,1.16l8.77,21.22c.85,2.28,3.1,3.81,5.58,3.81,2.29,0,4.33-1.25,5.33-3.21h.09l7.36-17.83,7.12,17.23c.85,2.28,3.1,3.81,5.58,3.81,2.29,0,4.33-1.25,5.33-3.21h.09L65.71,1.16H11.45Z"/>
  </g>
</svg>