<?xml version="1.0" encoding="UTF-8"?>
<svg id="Layer_1" xmlns="http://www.w3.org/2000/svg" viewBox="0 0 268.89 29.63">
  <defs>
    <style>
      .cls-1 {
        fill: #fff;
      }

      .cls-2 {
        fill: none;
      }
    </style>
  </defs>
  <g>
    <path class="cls-1" d="M45.4,23.36V7.55h11.77v2.26h1.96v4.52h-1.96v2.26h1.96v4.52h-1.96v2.26h-11.77ZM49.33,14.32h5.89v-4.52h-5.89v4.52ZM49.33,21.1h5.89v-4.52h-5.89v4.52Z"/>
    <path class="cls-1" d="M61.08,23.36v-2.26h3.92v-11.29h-3.92v-2.26h11.77v2.26h-3.92v11.29h3.92v2.26h-11.77Z"/>
    <path class="cls-1" d="M78.74,23.36v-2.26h-1.96v-2.26h-1.96v-6.78h1.96v-2.26h1.96v-2.26h9.81v2.26h-7.85v2.26h-1.96v6.78h1.96v2.26h3.93v-4.52h-1.96v-2.26h5.89v9.04h-9.81Z"/>
  </g>
  <g>
    <path class="cls-1" d="M100.32,23.41v-2.26h-1.96v-2.26h3.92v2.26h5.89v-4.52h-7.85v-2.26h-1.96v-4.52h1.96v-2.26h9.81v2.26h1.96v2.26h-3.92v-2.26h-5.89v4.52h7.85v2.26h1.96v4.52h-1.96v2.26h-9.81Z"/>
    <path class="cls-1" d="M117.96,23.41v-13.55h-3.92v-2.26h11.77v2.26h-3.92v13.55h-3.93Z"/>
    <path class="cls-1" d="M129.73,23.41v-2.26h-1.96v-11.29h1.96v-2.26h9.81v2.26h1.96v11.29h-1.96v2.26h-9.81ZM131.69,21.15h5.89v-11.29h-5.89v11.29Z"/>
    <path class="cls-1" d="M143.47,23.41V7.6h3.92v2.26h1.96v2.26h1.96v-2.26h1.96v-2.26h3.92v15.81h-3.92v-9.04h-1.96v4.52h-1.96v-4.52h-1.96v9.04h-3.92Z"/>
    <path class="cls-1" d="M159.16,23.41V7.6h11.77v2.26h1.96v6.78h-1.96v2.26h-7.85v4.52h-3.92ZM163.09,16.63h5.89v-6.78h-5.89v6.78Z"/>
    <path class="cls-1" d="M178.77,23.41v-6.78h-1.96v-2.26h-1.96v-6.78h3.92v6.78h3.93v-6.78h3.92v6.78h-1.96v2.26h-1.96v6.78h-3.93Z"/>
  </g>
  <g>
    <path class="cls-1" d="M194.89,23.4V7.56h11.66v2.26h1.94v6.79h-3.89v2.26h1.94v2.26h1.94v2.26h-5.83v-2.26h-1.94v-2.26h-1.94v4.53h-3.89ZM198.78,16.61h3.89v-2.26h1.94v-4.53h-5.83v6.79Z"/>
    <path class="cls-1" d="M212.38,23.4v-2.26h-1.94v-11.32h1.94v-2.26h9.72v2.26h1.94v11.32h-1.94v2.26h-9.72ZM214.32,21.13h5.83v-11.32h-5.83v11.32Z"/>
    <path class="cls-1" d="M225.98,23.4V7.56h11.66v2.26h1.94v4.53h-1.94v2.26h1.94v4.53h-1.94v2.26h-11.66ZM229.87,14.35h5.83v-4.53h-5.83v4.53ZM229.87,21.13h5.83v-4.53h-5.83v4.53Z"/>
    <path class="cls-1" d="M243.47,23.4v-2.26h-1.94v-11.32h1.94v-2.26h9.72v2.26h1.94v11.32h-1.94v2.26h-9.72ZM245.42,21.13h5.83v-11.32h-5.83v11.32Z"/>
    <path class="cls-1" d="M260.53,23.4v-13.58h-3.89v-2.26h11.66v2.26h-3.89v13.58h-3.89Z"/>
  </g>
  <g>
    <g>
      <path class="cls-2" d="M6.35,10.11v9.91c0,1.99,1.62,3.61,3.61,3.61h18.5c1.99,0,3.61-1.62,3.61-3.61v-9.91c0-1.16-.55-2.19-1.41-2.85l-.84,2.03c.26.56.41,1.17.41,1.82,0,2.46-2.08,4.47-4.63,4.47s-4.63-2-4.63-4.47c0-.67.16-1.3.43-1.87l-1.13-2.74h-2.23l-1.15,2.79c.26.56.41,1.17.41,1.82,0,2.46-2.08,4.47-4.63,4.47s-4.63-2-4.63-4.47c0-.67.16-1.3.43-1.87l-.79-1.92c-.81.66-1.32,1.67-1.32,2.79ZM15.99,16.72h6.3c0,.08,0,.15,0,.22,0,2.86-1.41,5.17-3.16,5.17s-3.16-2.32-3.16-5.17c0-.08,0-.15,0-.22Z"/>
      <polygon class="cls-2" points="19.74 5.22 18.57 5.22 18.28 5.92 20.03 5.92 19.74 5.22"/>
      <path class="cls-2" d="M25.6,14.95c2.21,0,4-1.72,4-3.84,0-.33-.05-.66-.13-.97l-.69,1.66-.07.04c-.59,1.16-1.78,1.87-3.11,1.87-1.45,0-2.77-.9-3.27-2.23l-.58-1.41c-.09.33-.15.67-.15,1.03,0,2.12,1.79,3.84,4,3.84Z"/>
      <path class="cls-2" d="M32.65,10.11v9.91c0,2.31-1.88,4.19-4.19,4.19H9.96c-2.31,0-4.19-1.88-4.19-4.19v-9.91c0-1.37.66-2.58,1.68-3.34l-.48-1.17c-1.74.74-2.96,2.46-2.96,4.47v13.5c0,2.67,2.17,4.85,4.85,4.85h20.61c2.67,0,4.85-2.17,4.85-4.85v-13.5c0-2-1.22-3.73-2.96-4.47l-.46,1.1c1.06.76,1.76,2,1.76,3.41Z"/>
      <polygon class="cls-2" points="19.15 3.8 19.07 3.99 19.23 3.99 19.15 3.8"/>
      <path class="cls-2" d="M12.66,14.95c2.21,0,4-1.72,4-3.84,0-.33-.05-.66-.13-.97l-.69,1.66-.07.04c-.59,1.16-1.78,1.87-3.11,1.87-1.45,0-2.77-.9-3.27-2.23l-.58-1.41c-.09.33-.15.67-.15,1.03,0,2.12,1.79,3.84,4,3.84Z"/>
      <path class="cls-1" d="M12.66,15.58c2.55,0,4.63-2,4.63-4.47,0-.65-.15-1.27-.41-1.82l-.35.86c.08.31.13.63.13.97,0,2.12-1.79,3.84-4,3.84s-4-1.72-4-3.84c0-.36.05-.7.15-1.03l-.35-.84c-.27.57-.43,1.2-.43,1.87,0,2.46,2.08,4.47,4.63,4.47Z"/>
      <polygon class="cls-1" points="19.23 3.99 19.07 3.99 18.57 5.22 19.74 5.22 19.23 3.99"/>
      <path class="cls-1" d="M37.32,15.1h-1.79v-5.04c0-2.51-1.54-4.68-3.72-5.6l-.47,1.13c1.74.74,2.96,2.46,2.96,4.47v13.5c0,2.67-2.17,4.85-4.85,4.85H8.85c-2.67,0-4.85-2.17-4.85-4.85v-13.5c0-2,1.22-3.73,2.96-4.47l-.47-1.13c-2.18.92-3.72,3.08-3.72,5.6v5.04H.36c-.21,0-.39.17-.39.39v6.94c0,.21.17.39.39.39h2.41v.74c0,3.35,2.72,6.07,6.07,6.07h20.61c3.35,0,6.07-2.72,6.07-6.07v-.74h1.79c.21,0,.39-.17.39-.39v-6.94c0-.21-.17-.39-.39-.39Z"/>
      <path class="cls-1" d="M5.77,10.11v9.91c0,2.31,1.88,4.19,4.19,4.19h18.5c2.31,0,4.19-1.88,4.19-4.19v-9.91c0-1.41-.7-2.65-1.76-3.41l-.23.55c.86.66,1.41,1.69,1.41,2.85v9.91c0,1.99-1.62,3.61-3.61,3.61H9.96c-1.99,0-3.61-1.62-3.61-3.61v-9.91c0-1.12.52-2.13,1.32-2.79l-.23-.55c-1.01.77-1.68,1.98-1.68,3.34Z"/>
      <polygon class="cls-1" points="20.03 5.92 18.28 5.92 18.04 6.5 20.27 6.5 20.03 5.92"/>
      <path class="cls-1" d="M25.6,15.58c2.55,0,4.63-2,4.63-4.47,0-.65-.15-1.27-.41-1.82l-.35.86c.08.31.13.63.13.97,0,2.12-1.79,3.84-4,3.84s-4-1.72-4-3.84c0-.36.05-.7.15-1.03l-.35-.84c-.27.57-.43,1.2-.43,1.87,0,2.46,2.08,4.47,4.63,4.47Z"/>
      <path class="cls-1" d="M19.14,22.12c1.74,0,3.16-2.32,3.16-5.17,0-.08,0-.15,0-.22h-6.3c0,.08,0,.15,0,.22,0,2.86,1.41,5.17,3.16,5.17Z"/>
    </g>
    <path class="cls-1" d="M5.38.56l4.45,10.77c.43,1.16,1.57,1.93,2.83,1.93,1.16,0,2.2-.63,2.7-1.63h.05l3.74-9.05,3.61,8.75c.43,1.16,1.57,1.93,2.83,1.93,1.16,0,2.2-.63,2.7-1.63h.05L32.92.56H5.38Z"/>
  </g>
</svg>