<?xml version="1.0" encoding="utf-8"?>
<!-- Generator: Adobe Illustrator 19.0.0, SVG Export Plug-In . SVG Version: 6.00 Build 0)  -->
<svg version="1.1" id="Layer_1" xmlns="http://www.w3.org/2000/svg" xmlns:xlink="http://www.w3.org/1999/xlink" x="0px" y="0px"
	 viewBox="0 0 172.7 51.4" style="enable-background:new 0 0 172.7 51.4;" xml:space="preserve">
<style type="text/css">
	.st0{fill:#FFFFFF;}
</style>
<g>
	<path class="st0" d="M163.3,51.4H9.4c-5.2,0-9.4-4.3-9.4-9.5V9.5C0,4.3,4.2,0,9.4,0h153.9c5.2,0,9.4,4.3,9.4,9.5v32.4
		C172.7,47.1,168.5,51.4,163.3,51.4z M9.4,5C6.9,5,4.9,7,4.9,9.5v32.4c0,2.5,2,4.5,4.4,4.5h153.9c2.4,0,4.4-2,4.4-4.5V9.5
		c0-2.5-2-4.5-4.4-4.5H9.4z"/>
</g>
<g>
	<g>
		<g>
			<path class="st0" d="M72.4,19.8V9.7h7.5v1.4h1.3v2.9h-1.3v1.4h1.3v2.9h-1.3v1.4H72.4z M74.9,14.1h3.8v-2.9h-3.8V14.1z M74.9,18.4
				h3.8v-2.9h-3.8V18.4z"/>
		</g>
		<g>
			<path class="st0" d="M82.4,19.8v-1.4h2.5v-7.2h-2.5V9.7H90v1.4h-2.5v7.2H90v1.4H82.4z"/>
		</g>
		<g>
			<path class="st0" d="M93.7,19.8v-1.4h-1.3v-1.4h-1.3v-4.3h1.3v-1.4h1.3V9.7h6.3v1.4h-5v1.4h-1.3v4.3H95v1.4h2.5v-2.9h-1.3v-1.4
				h3.8v5.8H93.7z"/>
		</g>
		<g>
			<path class="st0" d="M107.5,19.8v-1.4h-1.3v-1.4h2.5v1.4h3.8v-2.9h-5v-1.4h-1.3v-2.9h1.3V9.7h6.3v1.4h1.3v1.4h-2.5v-1.4h-3.8v2.9
				h5v1.4h1.3v2.9h-1.3v1.4H107.5z"/>
		</g>
		<g>
			<path class="st0" d="M118.7,19.8v-8.7h-2.5V9.7h7.5v1.4h-2.5v8.7H118.7z"/>
		</g>
		<g>
			<path class="st0" d="M126.2,19.8v-1.4H125v-7.2h1.3V9.7h6.3v1.4h1.3v7.2h-1.3v1.4H126.2z M127.5,18.4h3.8v-7.2h-3.8V18.4z"/>
		</g>
		<g>
			<path class="st0" d="M135,19.8V9.7h2.5v1.4h1.3v1.4h1.3v-1.4h1.3V9.7h2.5v10.1h-2.5v-5.8H140v2.9h-1.3v-2.9h-1.3v5.8H135z"/>
		</g>
		<g>
			<path class="st0" d="M145,19.8V9.7h7.5v1.4h1.3v4.3h-1.3v1.4h-5v2.9H145z M147.5,15.5h3.8v-4.3h-3.8V15.5z"/>
		</g>
		<g>
			<path class="st0" d="M157.6,19.8v-4.3h-1.3v-1.4H155V9.7h2.5v4.3h2.5V9.7h2.5v4.3h-1.3v1.4h-1.3v4.3H157.6z"/>
		</g>
	</g>
	<g>
		<g>
			<path class="st0" d="M72.4,41.4V22h14.3v2.8h2.4v8.3h-4.8v2.8h2.4v2.8h2.4v2.8H82v-2.8h-2.4v-2.8h-2.4v5.6H72.4z M77.2,33.1H82
				v-2.8h2.4v-5.6h-7.2V33.1z"/>
		</g>
		<g>
			<path class="st0" d="M93.9,41.4v-2.8h-2.4V24.7h2.4V22h11.9v2.8h2.4v13.9h-2.4v2.8H93.9z M96.3,38.6h7.2V24.7h-7.2V38.6z"/>
		</g>
		<g>
			<path class="st0" d="M110.6,41.4V22h14.3v2.8h2.4v5.6h-2.4v2.8h2.4v5.6h-2.4v2.8H110.6z M115.4,30.3h7.2v-5.6h-7.2V30.3z
				 M115.4,38.6h7.2v-5.6h-7.2V38.6z"/>
		</g>
		<g>
			<path class="st0" d="M132.1,41.4v-2.8h-2.4V24.7h2.4V22H144v2.8h2.4v13.9H144v2.8H132.1z M134.5,38.6h7.2V24.7h-7.2V38.6z"/>
		</g>
		<g>
			<path class="st0" d="M153,41.4V24.7h-4.8V22h14.3v2.8h-4.8v16.7H153z"/>
		</g>
	</g>
</g>
<g>
	<polygon class="st0" points="34.7,15.6 32.7,15.6 31.9,17.7 35.6,17.7 	"/>
	<path class="st0" d="M28.9,24.8c-0.7,1.3-2,2.1-3.5,2.1c-1.6,0-3.1-1-3.6-2.5l-1.2-2.9c-0.2,0.5-0.3,1-0.3,1.6
		c0,2.7,2.3,4.9,5.1,4.9c2.8,0,5.1-2.2,5.1-4.9c0-0.5-0.1-1.1-0.3-1.5L28.9,24.8L28.9,24.8z"/>
	<polygon class="st0" points="33.7,13.2 33.4,14 34,14 	"/>
	<path class="st0" d="M49.1,16l-1,2.4c1.5,0.9,2.6,2.5,2.6,4.4v12.7c0,2.8-2.3,5.1-5.1,5.1H21.9c-2.8,0-5.1-2.3-5.1-5.1V22.8
		c0-1.9,1-3.5,2.6-4.4l-1-2.4c-2.3,0.9-4,3.2-4,5.8v17.3c0,3.4,2.8,6.2,6.2,6.2h26.4c3.4,0,6.2-2.8,6.2-6.2V21.8
		C53.1,19.1,51.5,16.9,49.1,16z"/>
	<path class="st0" d="M17,22.8v12.7c0,2.7,2.2,4.9,4.9,4.9h23.7c2.7,0,4.9-2.2,4.9-4.9V22.8c0-1.8-1-3.3-2.4-4.2l-0.8,1.9
		c0.4,0.8,0.6,1.7,0.6,2.6c0,3.2-2.7,5.7-5.9,5.7S36,26.3,36,23.1c0-1,0.2-1.9,0.7-2.7l-1.1-2.5h-3.9l-1.1,2.6
		c0.4,0.8,0.6,1.7,0.6,2.6c0,3.2-2.7,5.7-5.9,5.7s-5.9-2.6-5.9-5.7c0-1,0.2-1.9,0.7-2.7l-0.8-1.8C17.9,19.5,17,21,17,22.8z
		 M30.1,31.7c0.4,0,0.8,0.4,0.8,0.8c0,1.7,1.3,3,2.8,3s2.8-1.4,2.8-3c0-0.4,0.4-0.8,0.8-0.8s0.8,0.4,0.8,0.8c0,2.5-2,4.6-4.4,4.6
		s-4.4-2.1-4.4-4.6C29.3,32.1,29.7,31.7,30.1,31.7z"/>
	<path class="st0" d="M9.4,2.3c-3.8,0-6.9,3.2-6.9,7v32.4c0,3.8,3.1,7,6.9,7h56.8V2.3H9.4z M62,35.9c0,0.6-0.5,1-1,1h-2.1
		c-0.5,0-1-0.4-1-1v-0.9h-3.2v4c0,4.3-3.5,7.8-7.8,7.8H20.5c-4.3,0-7.8-3.5-7.8-7.8v-4H9.8v0.9c0,0.6-0.5,1-1,1H6.7
		c-0.5,0-1-0.4-1-1v-2.8c0-0.5,0.5-1,1-1h2.1c0.5,0,1,0.5,1,1V34h2.9V21.8c0-3.3,2.1-6.1,5-7.3l-4.1-10h40.3l-4.1,10
		c2.9,1.1,5,4,5,7.3V34h3.2v-0.9c0-0.5,0.5-1,1-1H61c0.5,0,1,0.5,1,1V35.9z"/>
	<path class="st0" d="M45.4,24.8c-0.7,1.3-2,2.1-3.5,2.1c-1.6,0-3.1-1-3.6-2.5l-1.2-2.9c-0.2,0.5-0.3,1-0.3,1.6
		c0,2.7,2.3,4.9,5.1,4.9s5.1-2.2,5.1-4.9c0-0.5-0.1-1.1-0.3-1.5L45.4,24.8L45.4,24.8z"/>
</g>
</svg>
