<?xml version="1.0" encoding="utf-8"?>
<!-- Generator: Adobe Illustrator 19.0.0, SVG Export Plug-In . SVG Version: 6.00 Build 0)  -->
<svg version="1.1" id="Layer_1" xmlns="http://www.w3.org/2000/svg" xmlns:xlink="http://www.w3.org/1999/xlink" x="0px" y="0px"
	 viewBox="-152 344.6 144.3 51.4" style="enable-background:new -152 344.6 144.3 51.4;" xml:space="preserve">
<style type="text/css">
	.st0{fill:#FFFFFF;}
</style>
<g>
	<g>
		<g>
			<path class="st0" d="M-152,361.5v-16h11.9v2.2h2.1v4.6h-2.1v2.2h2.1v4.6h-2.1v2.2H-152V361.5z M-148,352.4h6v-4.6h-6V352.4z
				 M-148,359.2h6v-4.6h-6V359.2z"/>
		</g>
		<g>
			<path class="st0" d="M-136.2,361.5v-2.2h4v-11.4h-4v-2.4h12v2.2h-4v11.4h4v2.2h-12V361.5z"/>
		</g>
		<g>
			<path class="st0" d="M-118.3,361.5v-2.2h-2.1V357h-2.1v-6.8h2.1V348h2.1v-2.5h10v2.2h-7.9v2.2h-2.1v6.8h2.1v2.2h4v-4.6h-2.1v-2.2
				h6v9.2h-10V361.5z"/>
		</g>
		<g>
			<path class="st0" d="M-96.4,361.5v-2.2h-2.1V357h4v2.2h6v-4.6h-7.9v-2.2h-2.1v-4.6h2.1v-2.4h10v2.2h2.1v2.2h-4v-2.2h-6v4.6h7.9
				v2.2h2.1v4.6h-2.1v2.2h-10V361.5z"/>
		</g>
		<g>
			<path class="st0" d="M-78.6,361.5v-13.8h-4v-2.2h11.9v2.2h-4v13.8H-78.6z"/>
		</g>
		<g>
			<path class="st0" d="M-66.8,361.5v-2.2h-1.9v-11.4h2.1v-2.4h10v2.2h2.1v11.4h-2.1v2.2h-10.1V361.5z M-64.7,359.2h6v-11.4h-6
				V359.2z"/>
		</g>
		<g>
			<path class="st0" d="M-52.8,361.5v-16h4v2.2h2.1v2.2h2.1v-2.2h2.1v-2.2h4v16h-4v-9.2h-2.2v4.6H-47v-4.6H-49v9.2H-52.8z"/>
		</g>
		<g>
			<path class="st0" d="M-37,361.5v-16h11.9v2.2h2.1v6.8h-2.1v2.2H-33v4.6h-4V361.5z M-33,354.6h6v-6.8h-6V354.6z"/>
		</g>
		<g>
			<path class="st0" d="M-17,361.5v-6.8h-2.1v-2.2h-2.1v-7h4v6.8h4v-6.8h4v6.8h-2.1v2.2h-2.1v6.8H-17V361.5z"/>
		</g>
	</g>
	<g>
		<g>
			<path class="st0" d="M-152,395.7v-30.7h22.7v4.4h3.8v13.2h-7.6v4.4h3.8v4.4h3.8v4.4h-11.2v-4.4h-3.8V387h-3.8v8.9h-7.6V395.7z
				 M-144.4,382.5h7.6v-4.4h3.8v-8.9h-11.4C-144.4,369.2-144.4,382.5-144.4,382.5z"/>
		</g>
		<g>
			<path class="st0" d="M-117.9,395.7v-4.4h-3.8v-22h3.8v-4.3h18.9v4.4h3.8v22h-3.8v4.4h-18.9V395.7z M-114.1,391.2h11.4v-22h-11.4
				V391.2z"/>
		</g>
		<g>
			<path class="st0" d="M-91.5,395.7v-30.7h22.7v4.4h3.8v8.9h-3.8v4.4h3.8v8.9h-3.8v4.4h-22.7V395.7z M-83.9,378.1h11.4v-8.9h-11.4
				V378.1z M-83.9,391.2h11.4v-8.9h-11.4V391.2z"/>
		</g>
		<g>
			<path class="st0" d="M-57.4,395.7v-4.4h-3.8v-22h3.8v-4.3h18.9v4.4h3.8v22h-3.8v4.4h-18.9V395.7z M-53.6,391.2h11.4v-22h-11.4
				V391.2z"/>
		</g>
		<g>
			<path class="st0" d="M-24.3,395.7v-26.5h-7.6v-4.3h22.7v4.4h-7.6v26.5h-7.4V395.7z"/>
		</g>
	</g>
</g>
</svg>
