<?xml version="1.0" encoding="utf-8"?>
<!-- Generator: Adobe Illustrator 19.0.0, SVG Export Plug-In . SVG Version: 6.00 Build 0)  -->
<svg version="1.1" id="Layer_1" xmlns="http://www.w3.org/2000/svg" xmlns:xlink="http://www.w3.org/1999/xlink" x="0px" y="0px"
	 viewBox="0 0 131.2 160.1" style="enable-background:new 0 0 131.2 160.1;" xml:space="preserve">
<style type="text/css">
	.st0{fill:#FFFFFF;}
</style>
<g>
	<g id="XMLID_5_">
		<g id="XMLID_32_">
			<g id="XMLID_204_">
				<g id="XMLID_205_">
					<path id="XMLID_206_" class="st0" d="M10.1,118.3v-12.6h9.4v1.8H21v3.6h-1.6v1.8H21v3.6h-1.6v1.8H10.1z M13.2,111.1h4.7v-3.6
						h-4.7V111.1z M13.2,116.5h4.7v-3.6h-4.7V116.5z"/>
				</g>
			</g>
			<g id="XMLID_200_">
				<g id="XMLID_201_">
					<path id="XMLID_202_" class="st0" d="M22.6,118.3v-1.8h3.1v-9h-3.1v-1.8H32v1.8h-3.1v9H32v1.8H22.6z"/>
				</g>
			</g>
			<g id="XMLID_196_">
				<g id="XMLID_197_">
					<path id="XMLID_198_" class="st0" d="M36.6,118.3v-1.8h-1.6v-1.8h-1.6v-5.4h1.6v-1.8h1.6v-1.8h7.8v1.8h-6.2v1.8h-1.6v5.4h1.6
						v1.8h3.1v-3.6h-1.6v-1.8h4.7v7.2H36.6z"/>
				</g>
			</g>
			<g id="XMLID_192_">
				<g id="XMLID_193_">
					<path id="XMLID_194_" class="st0" d="M53.8,118.3v-1.8h-1.6v-1.8h3.1v1.8H60v-3.6h-6.2v-1.8h-1.6v-3.6h1.6v-1.8h7.8v1.8h1.6
						v1.8H60v-1.8h-4.7v3.6h6.2v1.8h1.6v3.6h-1.6v1.8H53.8z"/>
				</g>
			</g>
			<g id="XMLID_188_">
				<g id="XMLID_189_">
					<path id="XMLID_190_" class="st0" d="M67.8,118.3v-10.8h-3.1v-1.8h9.4v1.8h-3.1v10.8H67.8z"/>
				</g>
			</g>
			<g id="XMLID_183_">
				<g id="XMLID_184_">
					<path id="XMLID_185_" class="st0" d="M77.2,118.3v-1.8h-1.6v-9h1.6v-1.8H85v1.8h1.6v9H85v1.8H77.2z M78.7,116.5h4.7v-9h-4.7
						V116.5z"/>
				</g>
			</g>
			<g id="XMLID_42_">
				<g id="XMLID_44_">
					<path id="XMLID_45_" class="st0" d="M88.1,118.3v-12.6h3.1v1.8h1.6v1.8h1.6v-1.8h1.6v-1.8H99v12.6h-3.1v-7.2h-1.6v3.6h-1.6
						v-3.6h-1.6v7.2H88.1z"/>
				</g>
			</g>
			<g id="XMLID_37_">
				<g id="XMLID_38_">
					<path id="XMLID_39_" class="st0" d="M100.6,118.3v-12.6h9.4v1.8h1.6v5.4H110v1.8h-6.2v3.6H100.6z M103.7,112.9h4.7v-5.4h-4.7
						V112.9z"/>
				</g>
			</g>
			<g id="XMLID_33_">
				<g id="XMLID_34_">
					<path id="XMLID_35_" class="st0" d="M116.2,118.3v-5.4h-1.6v-1.8h-1.6v-5.4h3.1v5.4h3.1v-5.4h3.1v5.4h-1.6v1.8h-1.6v5.4H116.2z
						"/>
				</g>
			</g>
		</g>
		<g id="XMLID_6_">
			<g id="XMLID_27_">
				<g id="XMLID_28_">
					<path id="XMLID_29_" class="st0" d="M10.1,145.2v-24.2h17.8v3.5h3v10.4H25v3.5h3v3.5h3v3.5H22v-3.5h-3v-3.5h-3v6.9H10.1z
						 M16.1,134.8H22v-3.5h3v-6.9h-8.9V134.8z"/>
				</g>
			</g>
			<g id="XMLID_22_">
				<g id="XMLID_23_">
					<path id="XMLID_24_" class="st0" d="M36.9,145.2v-3.5h-3v-17.3h3v-3.5h14.9v3.5h3v17.3h-3v3.5H36.9z M39.8,141.7h8.9v-17.3
						h-8.9V141.7z"/>
				</g>
			</g>
			<g id="XMLID_16_">
				<g id="XMLID_17_">
					<path id="XMLID_18_" class="st0" d="M57.7,145.2v-24.2h17.8v3.5h3v6.9h-3v3.5h3v6.9h-3v3.5H57.7z M63.6,131.3h8.9v-6.9h-8.9
						V131.3z M63.6,141.7h8.9v-6.9h-8.9V141.7z"/>
				</g>
			</g>
			<g id="XMLID_11_">
				<g id="XMLID_12_">
					<path id="XMLID_13_" class="st0" d="M84.5,145.2v-3.5h-3v-17.3h3v-3.5h14.9v3.5h3v17.3h-3v3.5H84.5z M87.4,141.7h8.9v-17.3
						h-8.9V141.7z"/>
				</g>
			</g>
			<g id="XMLID_7_">
				<g id="XMLID_8_">
					<path id="XMLID_9_" class="st0" d="M110.6,145.2v-20.8h-5.9v-3.5h17.8v3.5h-5.9v20.8H110.6z"/>
				</g>
			</g>
		</g>
	</g>
	<g id="XMLID_47_">
		<polygon id="XMLID_172_" class="st0" points="65.4,21.2 64.8,22.8 66.1,22.8 		"/>
		<polygon id="XMLID_173_" class="st0" points="67.3,26.7 63.5,26.7 61.8,30.7 69,30.7 		"/>
		<path id="XMLID_174_" class="st0" d="M56.1,43.7c-1.3,3-3.8,4.1-6.7,4.1c-3.1,0-5.9-1.9-7-4.7l-2.3-5.6c-0.4,1-0.6,2.1-0.6,3.2
			c0,5.2,4.4,9.5,9.9,9.5c5.5,0,9.9-4.3,9.9-9.5c0-1.1-0.2-2.2-0.5-3.1l-2.6,6.1H56.1z"/>
		<path id="XMLID_177_" class="st0" d="M32.8,40v24.5c0,5.2,4.5,9.2,9.7,9.2h45.7c5.2,0,9.6-4,9.6-9.2V40c0-3.4-1.9-6.4-4.7-8.1
			l-1.6,3.7c0.8,1.5,1.2,3.2,1.2,5c0,6.1-5.1,11-11.4,11c-6.3,0-11.4-5-11.4-11c0-1.8,0.5-3.6,1.3-5.1l-2-4.9h-7.5l-2.1,5
			c0.8,1.5,1.3,3.2,1.3,5c0,6.1-5.1,11-11.4,11c-6.3,0-11.4-5-11.4-11.1c0-1.8,0.5-3.6,1.3-5.1l-1.6-3.6
			C34.8,33.6,32.8,36.6,32.8,40z M58.5,57.2c0.8,0,1.5,0.7,1.5,1.5c0,3.2,2.4,5.9,5.4,5.9c3,0,5.4-2.6,5.4-5.9
			c0-0.8,0.7-1.5,1.5-1.5c0.8,0,1.5,0.7,1.5,1.5c0,4.9-3.8,8.9-8.4,8.9c-4.6,0-8.4-4-8.4-8.9C57,57.9,57.7,57.2,58.5,57.2z"/>
		<path id="XMLID_180_" class="st0" d="M109.4,2.7H21.9C11.5,2.7,2.8,7.2,2.8,12.8v83.9h125V12.8C127.8,7.2,119.8,2.7,109.4,2.7z
			 M119.8,66.6c0,0.4-0.1,1.1-0.5,1.1h-6.6c-0.4,0-0.9-0.7-0.9-1.1v-2.9h-6v7.7c0,8.3-6.7,15.3-14.9,15.3H39.9
			c-8.3,0-15.1-7-15.1-15.3v-7.7h-5v2.9c0,0.4-0.9,1.1-1.2,1.1H12c-0.4,0-0.2-0.7-0.2-1.1v-7.9c0-0.4-0.2-1.1,0.2-1.1h6.6
			c0.4,0,1.2,0.7,1.2,1.1v2.9h5V38c0-6.4,4-11.8,9.6-14L26.5,4.7h77.8l-8,19.4c5.6,2.2,9.5,7.7,9.5,14v23.6h6v-2.9
			c0-0.4,0.6-1.1,0.9-1.1h6.6c0.4,0,0.5,0.7,0.5,1.1V66.6z"/>
		<path id="XMLID_181_" class="st0" d="M95.1,26.9l-2.1,4.6c2.9,1.7,4.8,4.9,4.8,8.5v24.5c0,5.4-4.1,10.2-9.6,10.2H42.5
			c-5.4,0-9.7-4.7-9.7-10.2V40c0-3.6,1.9-6.8,4.8-8.5l-2-4.6c-4.5,1.7-7.8,6.1-7.8,11.2v33.4c0,6.6,5.5,12.3,12.1,12.3h50.9
			c6.6,0,11.9-5.6,11.9-12.3V38C102.8,32.9,99.6,28.6,95.1,26.9z"/>
		<path id="XMLID_182_" class="st0" d="M88,43.7c-1.3,3-3.8,4.1-6.7,4.1c-3.1,0-5.9-1.9-7-4.7L72,37.5c-0.4,1-0.6,2.1-0.6,3.2
			c0,5.2,4.4,9.5,9.9,9.5c5.5,0,9.9-4.3,9.9-9.5c0-1.1-0.2-2.2-0.5-3.1l-2.6,6.1H88z"/>
	</g>
	<g id="XMLID_1_">
		<path id="XMLID_2_" class="st0" d="M120.5,160.1H10.7c-5.9,0-10.7-4.8-10.7-10.7V10.7C0,4.8,4.8,0,10.7,0h109.8
			c5.9,0,10.7,4.8,10.7,10.7v138.6C131.2,155.3,126.4,160.1,120.5,160.1z M10.7,5.2c-3.1,0-5.5,2.5-5.5,5.5v138.6
			c0,3.1,2.5,5.5,5.5,5.5h109.8c3.1,0,5.5-2.5,5.5-5.5V10.7c0-3.1-2.5-5.5-5.5-5.5H10.7z"/>
	</g>
</g>
</svg>
